<?xml version="1.0" standalone="no"?>
<!DOCTYPE svg PUBLIC "-//W3C//DTD SVG 20010904//EN"
 "http://www.w3.org/TR/2001/REC-SVG-20010904/DTD/svg10.dtd">
<svg version="1.0" xmlns="http://www.w3.org/2000/svg"
 width="42.000000pt" height="42.000000pt" viewBox="0 0 42.000000 42.000000"
 preserveAspectRatio="xMidYMid meet">
<metadata>
Created by potrace 1.15, written by Peter Selinger 2001-2017
</metadata>
<g transform="translate(0.000000,42.000000) scale(0.100000,-0.100000)"
fill="#000000" stroke="none">
<path d="M133 331 c-71 -45 -82 -137 -24 -195 28 -28 38 -31 91 -31 54 0 63 3
92 33 29 29 33 39 33 87 0 48 -4 58 -32 86 -41 42 -112 50 -160 20z m155 -28
c2 -9 -7 -13 -27 -13 -21 0 -31 -5 -31 -15 0 -8 7 -15 15 -15 17 0 18 -4 9
-37 -4 -13 -14 -23 -25 -23 -13 0 -20 -10 -25 -35 -6 -32 -9 -35 -41 -35 -33
0 -34 1 -27 35 5 29 3 35 -11 35 -12 0 -15 5 -11 16 3 9 6 22 6 30 0 8 9 14
20 14 11 0 20 6 20 14 0 30 31 47 78 44 25 -2 47 -9 50 -15z"/>
</g>
</svg>
